<svg width="61" height="62" viewBox="0 0 61 62" fill="none" xmlns="http://www.w3.org/2000/svg">
<path d="M10.1836 42.1652C6.6106 41.5949 3.88184 38.5004 3.88184 34.7674V30.1729C3.88184 28.9654 4.37157 27.8719 5.16249 27.0809C5.9534 26.29 7.04573 25.8003 8.25325 25.8003C8.88373 25.7992 9.50688 25.9354 10.0794 26.1994M51.317 42.165C54.2151 41.7021 56.5577 39.5787 57.3394 36.8001M51.4213 26.1991C51.9768 25.9425 52.5944 25.8007 53.2471 25.8007C54.4542 25.8007 55.5464 26.2905 56.3374 27.0804C57.1284 27.8714 57.6183 28.9648 57.6183 30.173V32.7172" stroke="#E8846E" stroke-width="2" stroke-miterlimit="10" stroke-linecap="round" stroke-linejoin="round"/>
<path d="M13.6454 10.9388C11.3942 14.2483 10.0793 18.2445 10.0793 22.5488V38.6847C10.0793 42.5156 11.6016 46.1884 14.3099 48.8966L22.144 56.7308M16.274 7.79348C20.0029 4.13481 25.1136 1.87891 30.7504 1.87891C36.4587 1.87891 41.6268 4.19223 45.3675 7.93293C49.1082 11.6736 51.4215 16.8405 51.4215 22.5488V38.6847C51.4215 42.5156 49.8992 46.1884 47.191 48.8966L37.9072 58.1804C36.6649 59.4228 34.98 60.1208 33.2231 60.1211H28.2777C27.2148 60.1211 26.1777 59.8656 25.2507 59.3886M51.4215 30.1756H52.3192C53.5063 30.1756 54.4673 31.1365 54.4673 32.3236V33.7311M6.73096 33.7311V32.3236C6.73096 31.1365 7.69191 30.1756 8.87905 30.1756H9.77672" stroke="#E8846E" stroke-width="2" stroke-miterlimit="10" stroke-linecap="round" stroke-linejoin="round"/>
</svg>
