<svg width="61" height="60" viewBox="0 0 61 60" fill="none" xmlns="http://www.w3.org/2000/svg">
<path d="M14.5749 38.6384C19.768 38.6384 23.9779 36.2075 23.9779 33.2089C23.9779 30.2102 19.768 27.7793 14.5749 27.7793C9.38173 27.7793 5.17188 30.2102 5.17188 33.2089C5.17188 36.2075 9.38173 38.6384 14.5749 38.6384Z" stroke="#54B15D" stroke-width="2" stroke-miterlimit="10" stroke-linecap="round" stroke-linejoin="round"/>
<path d="M18.4528 28.4929C18.7433 29.0413 18.8946 29.6526 18.8935 30.2731C18.8935 32.3798 17.1865 34.0868 15.0798 34.0868C12.9732 34.0868 11.2661 32.3798 11.2661 30.2731C11.2661 29.4665 11.5174 28.7179 11.9433 28.1028M40.2707 23.0336C41.9172 22.0261 43.8531 21.4453 45.9252 21.4453C49.9441 21.4453 53.4502 23.6301 55.3282 26.8749" stroke="#54B15D" stroke-width="2" stroke-miterlimit="10" stroke-linecap="round" stroke-linejoin="round"/>
<path d="M48.5579 28.0462C48.9991 28.6953 49.2351 29.4665 49.2342 30.2563C49.2342 32.4016 47.5294 34.1399 45.4256 34.1399C43.3218 34.1399 41.617 32.4016 41.617 30.2563C41.617 29.601 41.7763 28.984 42.0572 28.4435M55.328 33.2089C55.328 36.2075 51.1181 38.6384 45.925 38.6384C40.7318 38.6384 36.522 36.2075 36.522 33.2089C36.522 30.2102 40.7318 27.7793 45.925 27.7793C51.1181 27.7793 55.328 30.2102 55.328 33.2089Z" stroke="#54B15D" stroke-width="2" stroke-miterlimit="10" stroke-linecap="round" stroke-linejoin="round"/>
<path d="M20.1719 23.0608C18.5316 22.0605 16.6031 21.4839 14.5389 21.4839C10.5354 21.4839 7.04272 23.653 5.17188 26.8745" stroke="#54B15D" stroke-width="2" stroke-miterlimit="10" stroke-linecap="round" stroke-linejoin="round"/>
</svg>
