<svg width="61" height="60" viewBox="0 0 61 60" fill="none" xmlns="http://www.w3.org/2000/svg">
<path d="M19.7618 23.5387C20.5692 21.8008 21.7962 20.2973 23.3126 19.1582M37.1876 19.1582C39.9942 21.2664 41.8083 24.6227 41.8083 28.4031C41.8083 34.7863 36.6333 39.9613 30.2501 39.9613C23.8669 39.9613 18.6919 34.7863 18.6919 28.4031C18.6919 28.0797 18.7048 27.7609 18.7317 27.4445" stroke="#12A1AA" stroke-width="2" stroke-miterlimit="10" stroke-linecap="round" stroke-linejoin="round"/>
<path d="M3.14102 33.0778C2.41492 32.0894 1.74323 31.0621 1.12891 30.0005C6.94258 19.9517 17.8059 13.1899 30.25 13.1899C36.543 13.1899 42.4316 14.9196 47.4672 17.929M50.8504 20.2399C54.2938 22.9132 57.1873 26.2276 59.3711 30.0005C53.5574 40.0493 42.6941 46.8099 30.25 46.8099C20.5516 46.8099 11.8141 42.7036 5.67812 36.1353" stroke="#12A1AA" stroke-width="2" stroke-miterlimit="10" stroke-linecap="round" stroke-linejoin="round"/>
<path d="M59.3711 30.0002C53.558 23.2306 42.6939 18.6758 30.25 18.6758C17.8061 18.6758 6.94199 23.2306 1.12891 30.0002" stroke="#12A1AA" stroke-width="2" stroke-miterlimit="10" stroke-linecap="round" stroke-linejoin="round"/>
<path d="M30.25 32.9732C32.7739 32.9732 34.8199 30.9272 34.8199 28.4033C34.8199 25.8795 32.7739 23.8335 30.25 23.8335C27.7262 23.8335 25.6802 25.8795 25.6802 28.4033C25.6802 30.9272 27.7262 32.9732 30.25 32.9732Z" stroke="#12A1AA" stroke-width="2" stroke-miterlimit="10" stroke-linecap="round" stroke-linejoin="round"/>
</svg>
