<svg width="44" height="62" viewBox="0 0 44 62" fill="none" xmlns="http://www.w3.org/2000/svg">
<path d="M1.125 25.8759V22.6074C1.125 11.192 10.3795 1.9375 21.7961 1.9375C27.5044 1.9375 32.6725 4.25083 36.4132 7.99152C37.0109 8.58919 37.571 9.22202 38.0913 9.88883M40.284 13.3518C41.6809 16.1362 42.4672 19.2792 42.4672 22.6074V38.7433C42.4672 42.5742 40.9449 46.247 38.2367 48.9552L28.9529 58.239C27.7106 59.4814 26.0257 60.1794 24.2688 60.1797H19.3234C17.5667 60.1797 15.8815 59.4812 14.6393 58.239L5.35555 48.9552C4.01437 47.6142 2.95046 46.0222 2.22458 44.27C1.4987 42.5179 1.12506 40.6399 1.125 38.7433V29.9775" stroke="#D6A731" stroke-width="2" stroke-miterlimit="10" stroke-linecap="round" stroke-linejoin="round"/>
<path d="M12.6065 32.2679C15.6358 32.2679 18.0915 30.8499 18.0915 29.1008C18.0915 27.3516 15.6358 25.9336 12.6065 25.9336C9.57728 25.9336 7.12158 27.3516 7.12158 29.1008C7.12158 30.8499 9.57728 32.2679 12.6065 32.2679Z" stroke="#D6A731" stroke-width="2" stroke-miterlimit="10" stroke-linecap="round" stroke-linejoin="round"/>
<path d="M30.8936 32.2679C33.9229 32.2679 36.3786 30.8499 36.3786 29.1008C36.3786 27.3516 33.9229 25.9336 30.8936 25.9336C27.8644 25.9336 25.4087 27.3516 25.4087 29.1008C25.4087 30.8499 27.8644 32.2679 30.8936 32.2679Z" stroke="#D6A731" stroke-width="2" stroke-miterlimit="10" stroke-linecap="round" stroke-linejoin="round"/>
</svg>
