<svg width="36" height="36" viewBox="0 0 36 36" fill="none" xmlns="http://www.w3.org/2000/svg">
<path fill-rule="evenodd" clip-rule="evenodd" d="M15.4341 0.0834963H20.5653C23.2376 0.0834856 25.3325 0.0834774 27.0062 0.242608C28.7121 0.404808 30.1089 0.741111 31.3403 1.4957C32.6298 2.2859 33.7139 3.37006 34.5041 4.65955C35.2587 5.89092 35.595 7.28776 35.7572 8.99367C35.9164 10.6673 35.9163 12.7622 35.9163 15.4345V17.2132C35.9163 19.1154 35.9163 20.6068 35.8341 21.8116C35.7505 23.0373 35.5776 24.0575 35.1869 25.0009C34.2142 27.3491 32.3486 29.2147 30.0004 30.1873C28.6588 30.7431 27.1307 30.8663 25.0385 30.9024C24.3067 30.915 23.8432 30.9243 23.4898 30.9634C23.1596 30.9999 23.0316 31.0535 22.9567 31.0971C22.8777 31.1431 22.7701 31.2268 22.5832 31.4832C22.3809 31.7608 22.1524 32.1443 21.79 32.7566L20.8865 34.283C19.5972 36.4612 16.4021 36.4612 15.1128 34.283L14.2093 32.7566C13.8469 32.1443 13.6184 31.7608 13.4161 31.4832C13.2292 31.2268 13.1216 31.1431 13.0425 31.0971C12.9676 31.0535 12.8397 30.9999 12.5095 30.9634C12.1561 30.9243 11.6926 30.915 10.9608 30.9024C8.86863 30.8663 7.34058 30.7431 5.99896 30.1873C3.65077 29.2147 1.78515 27.3491 0.812496 25.0009C0.421723 24.0575 0.248834 23.0373 0.1652 21.8116C0.0829984 20.6068 0.0830027 19.1154 0.0830082 17.2132L0.083008 15.4346C0.0829974 12.7623 0.0829891 10.6673 0.24212 8.99367C0.40432 7.28776 0.740623 5.89092 1.49521 4.65955C2.28541 3.37006 3.36957 2.2859 4.65906 1.4957C5.89043 0.741111 7.28727 0.404808 8.99319 0.242608C10.6668 0.0834774 12.7618 0.0834856 15.4341 0.0834963ZM9.22982 2.73138C7.7069 2.87618 6.73785 3.15388 5.96531 3.6273C5.01221 4.21136 4.21087 5.0127 3.62681 5.9658C3.15339 6.73834 2.8757 7.70739 2.7309 9.23031C2.58433 10.7718 2.58301 12.7481 2.58301 15.5002V17.1668C2.58301 19.1254 2.58369 20.5316 2.6594 21.6414C2.73435 22.7399 2.87863 23.4562 3.12219 24.0442C3.84111 25.7798 5.22005 27.1587 6.95567 27.8776C7.81506 28.2336 8.91144 28.3667 11.0038 28.4028L11.0569 28.4037C11.7202 28.4151 12.3015 28.4251 12.7846 28.4786C13.3038 28.5361 13.8115 28.6522 14.2994 28.936C14.7833 29.2174 15.1322 29.5933 15.4364 30.0107C15.7175 30.3964 16.0064 30.8846 16.3336 31.4374L17.2642 33.0096C17.5855 33.5524 18.4138 33.5524 18.7351 33.0096L19.6657 31.4374C19.9929 30.8846 20.2817 30.3964 20.5628 30.0107C20.8671 29.5933 21.216 29.2174 21.6998 28.936C22.1878 28.6522 22.6955 28.5361 23.2147 28.4786C23.6978 28.4251 24.2791 28.4151 24.9424 28.4037L24.9954 28.4028C27.0879 28.3667 28.1843 28.2336 29.0437 27.8776C30.7793 27.1587 32.1582 25.7798 32.8772 24.0442C33.1207 23.4562 33.265 22.7399 33.3399 21.6414C33.4157 20.5316 33.4163 19.1254 33.4163 17.1668V15.5002C33.4163 12.7481 33.415 10.7718 33.2685 9.23031C33.1237 7.70739 32.846 6.73834 32.3725 5.9658C31.7885 5.0127 30.9871 4.21136 30.034 3.6273C29.2615 3.15388 28.2924 2.87618 26.7695 2.73138C25.228 2.58482 23.2517 2.5835 20.4997 2.5835H15.4997C12.7476 2.5835 10.7713 2.58482 9.22982 2.73138Z" fill="#9F8FFF"/>
<path d="M12.9997 16.3335C12.9997 17.254 12.2535 18.0002 11.333 18.0002C10.4125 18.0002 9.66634 17.254 9.66634 16.3335C9.66634 15.413 10.4125 14.6668 11.333 14.6668C12.2535 14.6668 12.9997 15.413 12.9997 16.3335Z" fill="#9F8FFF"/>
<path d="M19.6663 16.3335C19.6663 17.254 18.9201 18.0002 17.9997 18.0002C17.0792 18.0002 16.333 17.254 16.333 16.3335C16.333 15.413 17.0792 14.6668 17.9997 14.6668C18.9201 14.6668 19.6663 15.413 19.6663 16.3335Z" fill="#9F8FFF"/>
<path d="M26.333 16.3335C26.333 17.254 25.5868 18.0002 24.6663 18.0002C23.7459 18.0002 22.9997 17.254 22.9997 16.3335C22.9997 15.413 23.7459 14.6668 24.6663 14.6668C25.5868 14.6668 26.333 15.413 26.333 16.3335Z" fill="#9F8FFF"/>
</svg>
