<svg width="36" height="36" viewBox="0 0 36 36" fill="none" xmlns="http://www.w3.org/2000/svg">
<path fill-rule="evenodd" clip-rule="evenodd" d="M4.17587 0.183573C4.81086 -0.0873059 5.54522 0.207867 5.8161 0.84286L4.66676 1.33315C5.8161 0.84286 5.816 0.842632 5.8161 0.84286L5.81728 0.845636L5.81967 0.851262L5.82798 0.870959L5.85825 0.943411C5.88428 1.00612 5.92177 1.09731 5.96906 1.21473C6.06363 1.44953 6.19753 1.78949 6.35765 2.21664C6.67763 3.07028 7.1036 4.27565 7.52974 5.68828C8.37537 8.49148 9.24967 12.2008 9.24967 15.619C9.24967 16.62 9.10402 17.5457 8.86078 18.4167H27.1386C26.8953 17.5457 26.7497 16.62 26.7497 15.619C26.7497 12.2008 27.624 8.49148 28.4696 5.68828C28.8957 4.27565 29.3217 3.07028 29.6417 2.21664C29.8018 1.78949 29.9357 1.44953 30.0303 1.21473C30.0776 1.09731 30.1151 1.00612 30.1411 0.943411L30.1714 0.870959L30.1797 0.851262L30.1821 0.845636L30.1828 0.84389C30.1829 0.843662 30.1833 0.84286 31.333 1.33333L30.1828 0.84389C30.4537 0.208897 31.1885 -0.0873059 31.8235 0.183573C32.4584 0.454417 32.7536 1.18862 32.4829 1.82355L32.4815 1.82677L32.4755 1.84093L32.45 1.90192C32.4273 1.95683 32.3931 2.03984 32.3493 2.14872C32.2615 2.36653 32.135 2.6876 31.9826 3.09413C31.6776 3.90785 31.2703 5.06047 30.8631 6.4103C30.042 9.13201 29.2497 12.5655 29.2497 15.619C29.2497 17.3838 29.8467 18.8981 30.7598 20.5462C31.0738 21.1131 31.4422 21.7192 31.8332 22.3624C32.6898 23.7715 33.6546 25.3588 34.3936 27.103C35.2822 29.2006 35.9163 31.6406 35.9163 34.6667C35.9163 35.357 35.3567 35.9167 34.6663 35.9167C33.976 35.9167 33.4163 35.357 33.4163 34.6667C33.4163 32.1823 32.9331 30.1739 32.2352 28.427C23.2448 28.6718 19.8022 33.2118 19.1855 35.0619C19.0154 35.5724 18.5377 35.9167 17.9997 35.9167C17.4616 35.9167 16.984 35.5724 16.8138 35.0619C16.1971 33.2118 12.7545 28.6718 3.76419 28.427C3.06627 30.1739 2.58301 32.1823 2.58301 34.6667C2.58301 35.357 2.02336 35.9167 1.33301 35.9167C0.642652 35.9167 0.0830078 35.357 0.0830078 34.6667C0.0830078 31.6406 0.717158 29.2006 1.6058 27.103C2.34471 25.3588 3.30956 23.7715 4.16611 22.3624C4.5571 21.7192 4.92553 21.1131 5.2396 20.5462C6.1526 18.8981 6.74967 17.3838 6.74967 15.619C6.74967 12.5655 5.95732 9.13201 5.13627 6.4103C4.72908 5.06047 4.32172 3.90785 4.0167 3.09413C3.86432 2.6876 3.73781 2.36653 3.65008 2.14872C3.60623 2.03984 3.57209 1.95683 3.5493 1.90192L3.52382 1.84093L3.51785 1.82677L3.51662 1.82388C3.24592 1.18894 3.54096 0.454417 4.17587 0.183573ZM4.93547 25.9794C11.9523 26.4438 16.0502 29.4029 17.9997 32.0625C19.9491 29.4029 24.0471 26.4438 31.0639 25.9794C30.6646 25.2551 30.2462 24.5691 29.8241 23.8771C29.4055 23.1908 28.9834 22.4986 28.5729 21.7576C28.4186 21.4791 28.2685 21.1971 28.125 20.9105C28.0838 20.9146 28.042 20.9167 27.9997 20.9167H7.99967C7.95737 20.9167 7.91556 20.9146 7.87433 20.9105C7.73084 21.1971 7.58076 21.4791 7.42647 21.7576C7.01599 22.4986 6.59383 23.1908 6.17521 23.8771C5.75317 24.5691 5.33472 25.2551 4.93547 25.9794Z" fill="#D6A731"/>
</svg>
