<svg width="30" height="35" viewBox="0 0 30 35" fill="none" xmlns="http://www.w3.org/2000/svg">
<path fill-rule="evenodd" clip-rule="evenodd" d="M10.433 2.16417C11.1063 0.479463 13.3251 -0.562161 15.0457 0.748563C17.9122 2.93215 21.5077 6.1424 24.3999 9.81431C27.2661 13.4532 29.5837 17.7245 29.5837 21.9999C29.5837 25.822 28.3999 28.6624 26.6865 30.6966C24.9892 32.7114 22.8327 33.8653 20.9697 34.4451C20.013 34.7428 19.1379 34.3041 18.7128 33.5908C18.3122 32.9185 18.3101 32.0245 18.8108 31.305C20.2396 29.2516 21.7503 26.2987 21.7503 23.6666C21.7503 22.3607 21.1875 20.8148 20.2783 19.2285C19.5947 18.0357 18.7568 16.8918 17.9409 15.9107C17.7714 18.2488 17.2634 21.1867 15.6869 23.6159C14.9706 24.7198 13.3781 24.8432 12.5303 23.771C12.2656 23.4362 12.0042 23.0686 11.7649 22.7321C11.7505 22.7118 11.7362 22.6916 11.7219 22.6716C11.5912 22.4877 11.4668 22.3135 11.3464 22.1499C10.2034 23.2883 9.13921 24.6502 9.13921 26.1666C9.13921 27.5061 9.80779 29.3374 10.5986 30.889C11.0264 31.7282 10.8475 32.6584 10.3327 33.2675C9.7852 33.9153 8.78885 34.2483 7.84313 33.7009C4.60297 31.8253 0.416992 27.8193 0.416992 21.9999C0.416992 20.4217 0.952149 18.7892 1.70083 17.1946C2.45456 15.5892 3.47665 13.9165 4.55006 12.2455C4.92194 11.6666 5.29934 11.0883 5.67608 10.511C7.51702 7.69008 9.34245 4.89289 10.433 2.16417ZM13.1642 2.69562C12.9933 2.75476 12.8323 2.89734 12.7545 3.09196C11.5623 6.07496 9.56712 9.12845 7.72586 11.9464C7.35981 12.5066 6.99984 13.0575 6.65347 13.5967C5.58806 15.2553 4.64277 16.811 3.96382 18.2571C3.27981 19.7139 2.91699 20.9561 2.91699 21.9999C2.91699 25.8241 5.2612 28.7935 7.7221 30.6302C7.13108 29.2284 6.63921 27.6116 6.63921 26.1666C6.63921 23.2822 8.80483 21.1047 10.0152 19.9586C10.7991 19.2163 12.1526 19.1497 12.9415 20.1233C13.2268 20.4754 13.5056 20.8661 13.7592 21.2226L13.7893 21.2649C13.8604 21.3649 13.9297 21.4623 13.9975 21.5569C15.1122 19.433 15.4242 16.8425 15.5023 14.7103C15.5344 13.8329 16.0783 13.139 16.7915 12.8488C17.5201 12.5524 18.4252 12.683 19.0479 13.3719L18.1205 14.2101L19.0479 13.3719C20.1585 14.6006 21.438 16.2245 22.4473 17.9853C23.4431 19.7227 24.2503 21.7214 24.2503 23.6666C24.2503 26.4876 22.9706 29.35 21.6773 31.4807C22.764 30.9486 23.8602 30.1713 24.7744 29.086C26.0856 27.5293 27.0837 25.2685 27.0837 21.9999C27.0837 18.5721 25.1879 14.855 22.436 11.3612C19.7101 7.90045 16.2829 4.83379 13.5308 2.73728C13.4397 2.66788 13.322 2.641 13.1642 2.69562Z" fill="#E8846E"/>
</svg>
