<svg width="36" height="36" viewBox="0 0 36 36" fill="none" xmlns="http://www.w3.org/2000/svg">
<path fill-rule="evenodd" clip-rule="evenodd" d="M18.9597 2.62935C18.7316 2.56821 18.4913 2.56821 18.2632 2.62935C18.1749 2.65301 18.0265 2.71569 17.7235 2.96834C17.4073 3.23203 17.0245 3.61313 16.4364 4.20118C15.8484 4.78923 15.4673 5.17202 15.2036 5.48828C14.9509 5.79129 14.8882 5.93963 14.8646 6.02796C14.8034 6.25611 14.8034 6.49634 14.8646 6.72449C14.8882 6.81282 14.9509 6.96117 15.2036 7.26418C15.4673 7.58043 15.8484 7.96322 16.4364 8.55127L27.4486 19.5634C28.0366 20.1515 28.4194 20.5326 28.7357 20.7963C29.0387 21.0489 29.187 21.1116 29.2753 21.1353C29.5035 21.1964 29.7437 21.1964 29.9719 21.1353C30.0602 21.1116 30.2086 21.0489 30.5116 20.7963C30.8278 20.5326 31.2106 20.1515 31.7987 19.5634C32.3867 18.9754 32.7678 18.5926 33.0315 18.2763C33.2841 17.9733 33.3468 17.825 33.3705 17.7366C33.4316 17.5085 33.4316 17.2683 33.3705 17.0401C33.3468 16.9518 33.2841 16.8034 33.0315 16.5004C32.7678 16.1842 32.3867 15.8014 31.7987 15.2133L30.5751 13.9898C29.7491 13.1637 29.749 11.8245 30.5751 10.9984C31.1769 10.3966 31.5374 10.0323 31.763 9.73669C31.8668 9.60063 31.9097 9.51916 31.9275 9.47656C31.9401 9.44626 31.9395 9.43768 31.9394 9.43554C31.9395 9.43341 31.9401 9.42405 31.9275 9.39375C31.9097 9.35116 31.8668 9.26968 31.763 9.13363C31.5374 8.83798 31.1769 8.47368 30.5751 7.8719L28.1279 5.42475C27.5262 4.82297 27.1619 4.46242 26.8662 4.23685C26.7302 4.13305 26.6487 4.09009 26.6061 4.07233C26.5758 4.05969 26.5672 4.06031 26.5651 4.06046C26.5649 4.06047 26.5652 4.06046 26.5651 4.06046C26.5637 4.06046 26.5559 4.05872 26.5233 4.07233C26.4807 4.09009 26.3992 4.13305 26.2631 4.23685C26.015 4.42618 25.7185 4.7106 25.2738 5.15293L28.0603 7.93949C28.5485 8.42764 28.5485 9.2191 28.0603 9.70726C27.5722 10.1954 26.7807 10.1954 26.2926 9.70726L20.7865 4.20118C20.1985 3.61313 19.8157 3.23203 19.4994 2.96834C19.1964 2.7157 19.0481 2.65301 18.9597 2.62935ZM23.5059 3.385L22.516 2.39518C21.9769 1.85602 21.5141 1.39319 21.1004 1.04822C20.6637 0.684082 20.1902 0.370868 19.6068 0.214532C18.9547 0.0398177 18.2682 0.0398176 17.6161 0.214531C17.0327 0.370868 16.5593 0.684082 16.1225 1.04822C15.7088 1.39319 15.246 1.85603 14.7069 2.39519L14.6304 2.47168C14.0912 3.01078 13.6284 3.47358 13.2835 3.88729C12.9193 4.32402 12.6061 4.79746 12.4498 5.38092C12.275 6.03296 12.2751 6.7195 12.4498 7.37154C12.6061 7.95499 12.9193 8.42843 13.2835 8.86516C13.6284 9.27888 14.0912 9.74166 14.6304 10.2808L15.6201 11.2705L11.27 15.6206L10.2803 14.6309C9.74118 14.0917 9.27839 13.6289 8.86468 13.2839C8.42795 12.9198 7.95451 12.6066 7.37105 12.4503C6.71901 12.2755 6.03247 12.2755 5.38043 12.4503C4.79697 12.6066 4.32354 12.9198 3.88681 13.2839C3.47308 13.6289 3.01028 14.0917 2.47116 14.6309L2.3947 14.7074C1.85554 15.2465 1.3927 15.7093 1.04774 16.123C0.683593 16.5597 0.370379 17.0332 0.214043 17.6166C0.0393284 18.2687 0.0393305 18.9552 0.214043 19.6073C0.370379 20.1907 0.683593 20.6642 1.04773 21.1009C1.39269 21.5146 1.8555 21.9774 2.39464 22.5165L2.43293 22.5548L3.38452 23.5064C2.94043 23.9521 2.54139 24.3637 2.24881 24.7472C1.87558 25.2364 1.55999 25.8236 1.55999 26.5652C1.55999 27.3067 1.87558 27.894 2.24881 28.3831C2.58869 28.8286 3.07223 29.312 3.60315 29.8429L6.15696 32.3967C6.68778 32.9276 7.17122 33.4111 7.61669 33.751C8.10587 34.1243 8.69309 34.4398 9.43467 34.4398C10.1762 34.4398 10.7635 34.1243 11.2527 33.751C11.6361 33.4584 12.0477 33.0594 12.4935 32.6153L13.4834 33.6052C14.0225 34.1444 14.4853 34.6072 14.899 34.9521C15.3357 35.3162 15.8091 35.6295 16.3926 35.7858C17.0446 35.9605 17.7312 35.9605 18.3832 35.7858C18.9667 35.6295 19.4401 35.3162 19.8768 34.9521C20.2905 34.6072 20.7533 34.1443 21.2924 33.6052L21.3689 33.5287C21.9081 32.9896 22.3709 32.5268 22.7159 32.113C23.08 31.6763 23.3933 31.2029 23.5496 30.6194C23.7243 29.9674 23.7243 29.2808 23.5496 28.6288C23.3933 28.0453 23.08 27.5719 22.7159 27.1352C22.3709 26.7214 21.9081 26.2586 21.3689 25.7195L20.3792 24.7298L24.7293 20.3797L25.7191 21.3695C26.2582 21.9086 26.721 22.3714 27.1347 22.7164C27.5714 23.0805 28.0448 23.3937 28.6283 23.5501C29.2803 23.7248 29.9669 23.7248 30.6189 23.5501C31.2024 23.3937 31.6758 23.0805 32.1125 22.7164C32.5263 22.3714 32.9891 21.9086 33.5282 21.3694L33.6046 21.293C34.1438 20.7539 34.6066 20.2911 34.9516 19.8773C35.3158 19.4406 35.629 18.9671 35.7853 18.3837C35.96 17.7316 35.96 17.0451 35.7853 16.3931C35.629 15.8096 35.3158 15.3362 34.9516 14.8994C34.6066 14.4857 34.1438 14.0229 33.6046 13.4838L32.6148 12.494C33.0589 12.0482 33.458 11.6366 33.7505 11.2531C34.1238 10.764 34.4394 10.1767 34.4394 9.43516C34.4394 8.69359 34.1238 8.10636 33.7505 7.61718C33.4107 7.17171 32.9271 6.68826 32.3962 6.15745L29.8424 3.60363C29.3116 3.07271 28.8281 2.58917 28.3827 2.2493C27.8935 1.87607 27.3063 1.56048 26.5647 1.56048C25.8231 1.56048 25.2359 1.87607 24.7467 2.2493C24.3632 2.54188 23.9516 2.94092 23.5059 3.385ZM32.3429 12.222C32.3427 12.2218 32.343 12.2221 32.3429 12.222ZM22.9616 18.6119L17.3879 13.0383L13.0378 17.3884L18.6115 22.962L22.9616 18.6119ZM5.15244 25.2743C4.71011 25.719 4.42569 26.0155 4.23637 26.2636C4.13256 26.3997 4.0896 26.4812 4.07184 26.5238C4.05921 26.5541 4.05982 26.5626 4.05997 26.5648C4.05982 26.5669 4.05921 26.5763 4.07184 26.6066C4.0896 26.6492 4.13256 26.7306 4.23637 26.8667C4.46194 27.1623 4.82248 27.5266 5.42427 28.1284L7.87141 30.5756C8.47319 31.1774 8.83749 31.5379 9.13314 31.7635C9.2692 31.8673 9.35067 31.9102 9.39327 31.928C9.4259 31.9416 9.43334 31.9398 9.43467 31.9398C9.43477 31.9398 9.43451 31.9398 9.43467 31.9398C9.43681 31.94 9.44577 31.9406 9.47607 31.928C9.51867 31.9102 9.60014 31.8673 9.7362 31.7635C10.0318 31.5379 10.3961 31.1774 10.9979 30.5756C11.824 29.7495 13.1632 29.7495 13.9893 30.5756L15.2128 31.7991C15.8009 32.3872 16.1837 32.7683 16.4999 33.032C16.8029 33.2846 16.9513 33.3473 17.0396 33.371C17.2678 33.4321 17.508 33.4321 17.7362 33.371C17.8245 33.3473 17.9728 33.2846 18.2758 33.032C18.5921 32.7683 18.9749 32.3872 19.5629 31.7991C20.151 31.2111 20.5321 30.8283 20.7958 30.512C21.0484 30.209 21.1111 30.0607 21.1348 29.9724C21.1959 29.7442 21.1959 29.504 21.1348 29.2758C21.1111 29.1875 21.0484 29.0392 20.7958 28.7362C20.5321 28.4199 20.151 28.0371 19.5629 27.449L8.55079 16.4369C7.96274 15.8488 7.57995 15.4678 7.26369 15.2041C6.96068 14.9514 6.81234 14.8887 6.72401 14.8651C6.49585 14.8039 6.25563 14.8039 6.02748 14.8651C5.93915 14.8887 5.7908 14.9514 5.48779 15.2041C5.17153 15.4678 4.78874 15.8489 4.20069 16.4369C3.61264 17.025 3.23155 17.4077 2.96785 17.724C2.71521 18.027 2.65253 18.1754 2.62886 18.2637C2.56773 18.4918 2.56772 18.7321 2.62886 18.9602C2.65253 19.0485 2.71521 19.1969 2.96785 19.4999C3.23155 19.8162 3.61264 20.1989 4.20069 20.787L9.70677 26.2931C10.1949 26.7812 10.1949 27.5727 9.70677 28.0608C9.21861 28.549 8.42716 28.549 7.939 28.0608L5.15244 25.2743Z" fill="#12A1AA"/>
</svg>
