<svg width="36" height="35" viewBox="0 0 36 35" fill="none" xmlns="http://www.w3.org/2000/svg">
<path fill-rule="evenodd" clip-rule="evenodd" d="M19.1954 3.25125C18.5317 2.55102 17.4676 2.55102 16.804 3.25125C15.8512 4.25652 14.7653 5.51289 13.9254 6.78526C13.0544 8.10468 12.583 9.24299 12.583 10.0555C12.583 13.249 15.0557 15.7499 17.9997 15.7499C20.9436 15.7499 23.4163 13.249 23.4163 10.0555C23.4163 9.24299 22.945 8.10468 22.074 6.78526C21.234 5.51289 20.1481 4.25652 19.1954 3.25125ZM14.9895 1.53151C16.6391 -0.209072 19.3602 -0.209072 21.0099 1.53151C22.011 2.58777 23.2069 3.9636 24.1604 5.40797C25.0828 6.80529 25.9163 8.46826 25.9163 10.0555C25.9163 14.5326 22.4195 18.2499 17.9997 18.2499C13.5798 18.2499 10.083 14.5326 10.083 10.0555C10.083 8.46826 10.9166 6.80529 11.839 5.40797C12.7924 3.9636 13.9884 2.58777 14.9895 1.53151ZM9.19536 19.9179C8.53171 19.2177 7.46764 19.2177 6.80399 19.9179C5.85123 20.9232 4.76531 22.1796 3.92538 23.4519C3.05439 24.7713 2.58301 25.9097 2.58301 26.7221C2.58301 29.9157 5.05573 32.4166 7.99967 32.4166C10.9436 32.4166 13.4163 29.9157 13.4163 26.7221C13.4163 25.9097 12.945 24.7713 12.074 23.4519C11.234 22.1796 10.1481 20.9232 9.19536 19.9179ZM4.98946 18.1982C6.63911 16.4576 9.36023 16.4576 11.0099 18.1982C12.011 19.2544 13.2069 20.6303 14.1604 22.0746C15.0828 23.472 15.9163 25.1349 15.9163 26.7221C15.9163 31.1992 12.4195 34.9166 7.99967 34.9166C3.57982 34.9166 0.0830078 31.1992 0.0830078 26.7221C0.0830078 25.1349 0.916564 23.472 1.83898 22.0746C2.79245 20.6303 3.98838 19.2544 4.98946 18.1982ZM29.1954 19.9179C28.5317 19.2177 27.4676 19.2177 26.804 19.9179C25.8512 20.9232 24.7653 22.1796 23.9254 23.4519C23.0544 24.7713 22.583 25.9097 22.583 26.7221C22.583 29.9157 25.0557 32.4166 27.9997 32.4166C30.9436 32.4166 33.4163 29.9157 33.4163 26.7221C33.4163 25.9097 32.945 24.7713 32.074 23.4519C31.234 22.1796 30.1481 20.9232 29.1954 19.9179ZM24.9895 18.1982C26.6391 16.4576 29.3602 16.4576 31.0099 18.1982C32.011 19.2544 33.2069 20.6303 34.1604 22.0746C35.0828 23.472 35.9163 25.1349 35.9163 26.7221C35.9163 31.1992 32.4195 34.9166 27.9997 34.9166C23.5798 34.9166 20.083 31.1992 20.083 26.7221C20.083 25.1349 20.9166 23.472 21.839 22.0746C22.7924 20.6303 23.9884 19.2544 24.9895 18.1982Z" fill="#90BDF3"/>
</svg>
