<svg width="15" height="16" viewBox="0 0 15 16" fill="none" xmlns="http://www.w3.org/2000/svg">
<path fill-rule="evenodd" clip-rule="evenodd" d="M6.4182 1.32926C6.42054 1.60539 6.19859 1.83114 5.92246 1.83348C4.78273 1.84314 3.94276 1.8802 3.29204 2.00767C2.65528 2.13239 2.23671 2.33704 1.91362 2.66014C1.53372 3.04004 1.31572 3.55402 1.20111 4.40652C1.08456 5.27341 1.0835 6.41253 1.0835 7.99843C1.0835 9.58432 1.08456 10.7234 1.20111 11.5903C1.31572 12.4428 1.53372 12.9568 1.91362 13.3367C2.29351 13.7166 2.80749 13.9346 3.66 14.0492C4.52689 14.1658 5.66601 14.1668 7.2519 14.1668C8.8378 14.1668 9.97692 14.1658 10.8438 14.0492C11.6963 13.9346 12.2103 13.7166 12.5902 13.3367C12.9133 13.0136 13.1179 12.595 13.2427 11.9583C13.3701 11.3076 13.4072 10.4676 13.4168 9.32787C13.4192 9.05174 13.6449 8.82978 13.9211 8.83212C14.1972 8.83447 14.4192 9.06021 14.4168 9.33635C14.4072 10.4726 14.3714 11.398 14.224 12.1505C14.0739 12.917 13.8016 13.5395 13.2973 14.0438C12.7006 14.6405 11.9404 14.9108 10.9771 15.0403C10.0358 15.1668 8.82949 15.1668 7.29015 15.1668H7.21365C5.67431 15.1668 4.46798 15.1668 3.52675 15.0403C2.56336 14.9108 1.80318 14.6405 1.20651 14.0438C0.609841 13.4472 0.339551 12.687 0.210026 11.7236C0.0834809 10.7823 0.0834877 9.57602 0.0834962 8.03668V7.96017C0.0834877 6.42083 0.0834809 5.2145 0.210026 4.27327C0.339551 3.30988 0.609841 2.5497 1.20651 1.95303C1.71085 1.44869 2.33335 1.17645 3.09981 1.02631C3.85231 0.878915 4.77771 0.843148 5.91398 0.833514C6.19011 0.831173 6.41586 1.05313 6.4182 1.32926ZM10.2299 0.979943C10.4252 0.784681 10.7418 0.784681 10.9371 0.979943L14.2704 4.31328C14.4656 4.50854 14.4656 4.82512 14.2704 5.02038L10.9371 8.35372C10.7418 8.54898 10.4252 8.54898 10.2299 8.35372C10.0347 8.15846 10.0347 7.84187 10.2299 7.64661L12.7097 5.16683H8.5835C7.54918 5.16683 6.93869 5.6715 6.72486 5.88638L6.59674 6.01512L6.46972 6.14152C6.25484 6.35536 5.75016 6.96585 5.75016 8.00016V10.0002C5.75016 10.2763 5.52631 10.5002 5.25016 10.5002C4.97402 10.5002 4.75016 10.2763 4.75016 10.0002V8.00016C4.75016 6.61098 5.43485 5.76058 5.76433 5.4327C5.76433 5.4327 5.76433 5.4327 5.76433 5.4327L5.89135 5.3063L6.01603 5.181C6.34391 4.85152 7.1943 4.16683 8.5835 4.16683H12.7097L10.2299 1.68705C10.0347 1.49179 10.0347 1.17521 10.2299 0.979943Z" fill="#9F8FFF"/>
</svg>
