<svg width="22" height="22" viewBox="0 0 22 22" fill="none" xmlns="http://www.w3.org/2000/svg">
<path d="M8.16602 11C8.16602 11.5523 7.7183 12 7.16602 12C6.61373 12 6.16602 11.5523 6.16602 11C6.16602 10.4477 6.61373 10 7.16602 10C7.7183 10 8.16602 10.4477 8.16602 11Z" fill="#90BDF3"/>
<path d="M12.166 11C12.166 11.5523 11.7183 12 11.166 12C10.6137 12 10.166 11.5523 10.166 11C10.166 10.4477 10.6137 10 11.166 10C11.7183 10 12.166 10.4477 12.166 11Z" fill="#90BDF3"/>
<path d="M16.166 11C16.166 11.5523 15.7183 12 15.166 12C14.6137 12 14.166 11.5523 14.166 11C14.166 10.4477 14.6137 10 15.166 10C15.7183 10 16.166 10.4477 16.166 11Z" fill="#90BDF3"/>
<path fill-rule="evenodd" clip-rule="evenodd" d="M21.916 11C21.916 5.06294 17.1031 0.25 11.166 0.25C5.22895 0.25 0.416016 5.06294 0.416016 11C0.416016 12.7183 0.819723 14.3445 1.53814 15.7869C1.64535 16.0021 1.66809 16.2219 1.61862 16.4068L1.02301 18.6328C0.61529 20.1566 2.00938 21.5507 3.53322 21.143L5.75926 20.5474C5.94415 20.4979 6.16392 20.5207 6.37916 20.6279C7.82154 21.3463 9.44771 21.75 11.166 21.75C17.1031 21.75 21.916 16.9371 21.916 11ZM11.166 1.75C16.2747 1.75 20.416 5.89137 20.416 11C20.416 16.1086 16.2747 20.25 11.166 20.25C9.68496 20.25 8.28722 19.9025 7.04792 19.2852C6.55052 19.0375 5.95574 18.9421 5.37155 19.0984L3.14551 19.694C2.73668 19.8034 2.36265 19.4293 2.47204 19.0205L3.06765 16.7945C3.22396 16.2103 3.12856 15.6155 2.88081 15.1181C2.26354 13.8788 1.91602 12.4811 1.91602 11C1.91602 5.89137 6.05738 1.75 11.166 1.75Z" fill="#90BDF3"/>
</svg>
