<svg width="22" height="22" viewBox="0 0 22 22" fill="none" xmlns="http://www.w3.org/2000/svg">
<path fill-rule="evenodd" clip-rule="evenodd" d="M8.77659 0.25L8.83301 0.250001C9.24722 0.250001 9.58301 0.585787 9.58301 1C9.58301 1.41421 9.24722 1.75 8.83301 1.75C6.92619 1.75 5.57152 1.75159 4.54386 1.88976C3.53777 2.02502 2.95812 2.27869 2.53491 2.7019C2.1117 3.12511 1.85803 3.70476 1.72277 4.71085C1.5846 5.73851 1.58301 7.09318 1.58301 9C1.58301 9.41421 1.24722 9.75 0.833008 9.75C0.418795 9.75 0.0830085 9.41421 0.0830085 9L0.0830081 8.94358C0.0829923 7.10582 0.0829796 5.65019 0.236143 4.51098C0.393771 3.33856 0.725888 2.38961 1.47425 1.64124C2.22261 0.89288 3.17156 0.560763 4.34399 0.403135C5.4832 0.249972 6.93883 0.249984 8.77659 0.25ZM17.1222 1.88976C16.0945 1.75159 14.7398 1.75 12.833 1.75C12.4188 1.75 12.083 1.41421 12.083 1C12.083 0.585787 12.4188 0.250001 12.833 0.250001L12.8894 0.25C14.7272 0.249984 16.1828 0.249972 17.322 0.403135C18.4945 0.560763 19.4434 0.89288 20.1918 1.64124C20.9401 2.38961 21.2722 3.33856 21.4299 4.51098C21.583 5.65019 21.583 7.10583 21.583 8.94359V9C21.583 9.41421 21.2472 9.75 20.833 9.75C20.4188 9.75 20.083 9.41421 20.083 9C20.083 7.09318 20.0814 5.73851 19.9432 4.71085C19.808 3.70476 19.5543 3.12511 19.1311 2.7019C18.7079 2.27869 18.1282 2.02502 17.1222 1.88976ZM0.833008 12.25C1.24722 12.25 1.58301 12.5858 1.58301 13C1.58301 14.9068 1.5846 16.2615 1.72277 17.2892C1.85803 18.2952 2.1117 18.8749 2.53491 19.2981C2.95812 19.7213 3.53777 19.975 4.54386 20.1102C5.57152 20.2484 6.92619 20.25 8.83301 20.25C9.24722 20.25 9.58301 20.5858 9.58301 21C9.58301 21.4142 9.24722 21.75 8.83301 21.75H8.7766C6.93884 21.75 5.4832 21.75 4.34399 21.5969C3.17156 21.4392 2.22261 21.1071 1.47425 20.3588C0.725888 19.6104 0.393771 18.6614 0.236143 17.489C0.0829796 16.3498 0.0829923 14.8942 0.0830081 13.0564L0.0830085 13C0.0830085 12.5858 0.418795 12.25 0.833008 12.25ZM20.833 12.25C21.2472 12.25 21.583 12.5858 21.583 13V13.0564C21.583 14.8942 21.583 16.3498 21.4299 17.489C21.2722 18.6614 20.9401 19.6104 20.1918 20.3588C19.4434 21.1071 18.4945 21.4392 17.322 21.5969C16.1828 21.75 14.7272 21.75 12.8894 21.75H12.833C12.4188 21.75 12.083 21.4142 12.083 21C12.083 20.5858 12.4188 20.25 12.833 20.25C14.7398 20.25 16.0945 20.2484 17.1222 20.1102C18.1282 19.975 18.7079 19.7213 19.1311 19.2981C19.5543 18.8749 19.808 18.2952 19.9432 17.2892C20.0814 16.2615 20.083 14.9068 20.083 13C20.083 12.5858 20.4188 12.25 20.833 12.25Z" fill="#90BDF3"/>
</svg>
