<svg width="23" height="22" viewBox="0 0 23 22" fill="none" xmlns="http://www.w3.org/2000/svg">
<path d="M15.5303 9.03033C15.8232 8.73744 15.8232 8.26256 15.5303 7.96967C15.2374 7.67678 14.7626 7.67678 14.4697 7.96967L10 12.4393L8.53033 10.9697C8.23744 10.6768 7.76256 10.6768 7.46967 10.9697C7.17678 11.2626 7.17678 11.7374 7.46967 12.0303L9.46967 14.0303C9.76256 14.3232 10.2374 14.3232 10.5303 14.0303L15.5303 9.03033Z" fill="#90BDF3"/>
<path fill-rule="evenodd" clip-rule="evenodd" d="M11.5 0.25C5.56294 0.25 0.75 5.06294 0.75 11C0.75 16.9371 5.56294 21.75 11.5 21.75C17.4371 21.75 22.25 16.9371 22.25 11C22.25 5.06294 17.4371 0.25 11.5 0.25ZM2.25 11C2.25 5.89137 6.39137 1.75 11.5 1.75C16.6086 1.75 20.75 5.89137 20.75 11C20.75 16.1086 16.6086 20.25 11.5 20.25C6.39137 20.25 2.25 16.1086 2.25 11Z" fill="#90BDF3"/>
</svg>
